<?xml version="1.0" encoding="UTF-8" standalone="no"?>
<!DOCTYPE svg PUBLIC "-//W3C//DTD SVG 1.1//EN"
 "http://www.w3.org/Graphics/SVG/1.1/DTD/svg11.dtd">
<!-- Generated by graphviz version 2.43.0 (0)
 -->
<!-- Title: G Pages: 1 -->
<svg width="571pt" height="532pt"
 viewBox="0.00 0.00 570.69 532.39" xmlns="http://www.w3.org/2000/svg" xmlns:xlink="http://www.w3.org/1999/xlink">
<g id="graph0" class="graph" transform="scale(1 1) rotate(0) translate(4 528.39)">
<title>G</title>
<polygon fill="white" stroke="transparent" points="-4,4 -4,-528.39 566.69,-528.39 566.69,4 -4,4"/>
<!-- system.ruby.network.routers00 -->
<g id="node1" class="node">
<title>system.ruby.network.routers00</title>
<path fill="#cce6fc" stroke="#000000" d="M102.99,-121.07C102.99,-121.07 132.99,-121.07 132.99,-121.07 138.99,-121.07 144.99,-127.07 144.99,-133.07 144.99,-133.07 144.99,-145.07 144.99,-145.07 144.99,-151.07 138.99,-157.07 132.99,-157.07 132.99,-157.07 102.99,-157.07 102.99,-157.07 96.99,-157.07 90.99,-151.07 90.99,-145.07 90.99,-145.07 90.99,-133.07 90.99,-133.07 90.99,-127.07 96.99,-121.07 102.99,-121.07"/>
<text text-anchor="middle" x="117.99" y="-135.37" font-family="Arial" font-size="14.00" fill="#000000">R 0</text>
</g>
<!-- system.ruby.network.routers01 -->
<g id="node2" class="node">
<title>system.ruby.network.routers01</title>
<path fill="#cce6fc" stroke="#000000" d="M111.91,-217.03C111.91,-217.03 141.91,-217.03 141.91,-217.03 147.91,-217.03 153.91,-223.03 153.91,-229.03 153.91,-229.03 153.91,-241.03 153.91,-241.03 153.91,-247.03 147.91,-253.03 141.91,-253.03 141.91,-253.03 111.91,-253.03 111.91,-253.03 105.91,-253.03 99.91,-247.03 99.91,-241.03 99.91,-241.03 99.91,-229.03 99.91,-229.03 99.91,-223.03 105.91,-217.03 111.91,-217.03"/>
<text text-anchor="middle" x="126.91" y="-231.33" font-family="Arial" font-size="14.00" fill="#000000">R 1</text>
</g>
<!-- system.ruby.network.routers00&#45;&#45;system.ruby.network.routers01 -->
<g id="edge1" class="edge">
<title>system.ruby.network.routers00&#45;&#45;system.ruby.network.routers01</title>
<path fill="none" stroke="#042d50" d="M119.67,-157.12C120.96,-170.97 122.76,-190.36 124.24,-206.34"/>
<polygon fill="#042d50" stroke="#042d50" points="120.8,-207.1 125.21,-216.74 127.77,-206.46 120.8,-207.1"/>
</g>
<!-- system.ruby.network.routers04 -->
<g id="node5" class="node">
<title>system.ruby.network.routers04</title>
<path fill="#cce6fc" stroke="#000000" d="M198.49,-105.95C198.49,-105.95 228.49,-105.95 228.49,-105.95 234.49,-105.95 240.49,-111.95 240.49,-117.95 240.49,-117.95 240.49,-129.95 240.49,-129.95 240.49,-135.95 234.49,-141.95 228.49,-141.95 228.49,-141.95 198.49,-141.95 198.49,-141.95 192.49,-141.95 186.49,-135.95 186.49,-129.95 186.49,-129.95 186.49,-117.95 186.49,-117.95 186.49,-111.95 192.49,-105.95 198.49,-105.95"/>
<text text-anchor="middle" x="213.49" y="-120.25" font-family="Arial" font-size="14.00" fill="#000000">R 4</text>
</g>
<!-- system.ruby.network.routers00&#45;&#45;system.ruby.network.routers04 -->
<g id="edge13" class="edge">
<title>system.ruby.network.routers00&#45;&#45;system.ruby.network.routers04</title>
<path fill="none" stroke="#042d50" d="M145.1,-134.78C154.78,-133.24 165.86,-131.49 176.24,-129.85"/>
<polygon fill="#042d50" stroke="#042d50" points="176.98,-133.27 186.31,-128.25 175.89,-126.36 176.98,-133.27"/>
</g>
<!-- system.ruby.network.routers02 -->
<g id="node3" class="node">
<title>system.ruby.network.routers02</title>
<path fill="#cce6fc" stroke="#000000" d="M124.13,-310.26C124.13,-310.26 154.13,-310.26 154.13,-310.26 160.13,-310.26 166.13,-316.26 166.13,-322.26 166.13,-322.26 166.13,-334.26 166.13,-334.26 166.13,-340.26 160.13,-346.26 154.13,-346.26 154.13,-346.26 124.13,-346.26 124.13,-346.26 118.13,-346.26 112.13,-340.26 112.13,-334.26 112.13,-334.26 112.13,-322.26 112.13,-322.26 112.13,-316.26 118.13,-310.26 124.13,-310.26"/>
<text text-anchor="middle" x="139.13" y="-324.56" font-family="Arial" font-size="14.00" fill="#000000">R 2</text>
</g>
<!-- system.ruby.network.routers01&#45;&#45;system.ruby.network.routers02 -->
<g id="edge2" class="edge">
<title>system.ruby.network.routers01&#45;&#45;system.ruby.network.routers02</title>
<path fill="none" stroke="#042d50" d="M129.33,-253.45C131.06,-266.69 133.43,-284.79 135.41,-299.87"/>
<polygon fill="#042d50" stroke="#042d50" points="131.99,-300.74 136.76,-310.2 138.94,-299.83 131.99,-300.74"/>
</g>
<!-- system.ruby.network.routers05 -->
<g id="node6" class="node">
<title>system.ruby.network.routers05</title>
<path fill="#cce6fc" stroke="#000000" d="M213.08,-204.95C213.08,-204.95 243.08,-204.95 243.08,-204.95 249.08,-204.95 255.08,-210.95 255.08,-216.95 255.08,-216.95 255.08,-228.95 255.08,-228.95 255.08,-234.95 249.08,-240.95 243.08,-240.95 243.08,-240.95 213.08,-240.95 213.08,-240.95 207.08,-240.95 201.08,-234.95 201.08,-228.95 201.08,-228.95 201.08,-216.95 201.08,-216.95 201.08,-210.95 207.08,-204.95 213.08,-204.95"/>
<text text-anchor="middle" x="228.08" y="-219.25" font-family="Arial" font-size="14.00" fill="#000000">R 5</text>
</g>
<!-- system.ruby.network.routers01&#45;&#45;system.ruby.network.routers05 -->
<g id="edge16" class="edge">
<title>system.ruby.network.routers01&#45;&#45;system.ruby.network.routers05</title>
<path fill="none" stroke="#042d50" d="M154.02,-231.79C165.36,-230.44 178.73,-228.84 190.96,-227.38"/>
<polygon fill="#042d50" stroke="#042d50" points="191.38,-230.86 200.9,-226.2 190.55,-223.91 191.38,-230.86"/>
</g>
<!-- system.ruby.network.routers03 -->
<g id="node4" class="node">
<title>system.ruby.network.routers03</title>
<path fill="#cce6fc" stroke="#000000" d="M140.57,-405.6C140.57,-405.6 170.57,-405.6 170.57,-405.6 176.57,-405.6 182.57,-411.6 182.57,-417.6 182.57,-417.6 182.57,-429.6 182.57,-429.6 182.57,-435.6 176.57,-441.6 170.57,-441.6 170.57,-441.6 140.57,-441.6 140.57,-441.6 134.57,-441.6 128.57,-435.6 128.57,-429.6 128.57,-429.6 128.57,-417.6 128.57,-417.6 128.57,-411.6 134.57,-405.6 140.57,-405.6"/>
<text text-anchor="middle" x="155.57" y="-419.9" font-family="Arial" font-size="14.00" fill="#000000">R 3</text>
</g>
<!-- system.ruby.network.routers02&#45;&#45;system.ruby.network.routers03 -->
<g id="edge3" class="edge">
<title>system.ruby.network.routers02&#45;&#45;system.ruby.network.routers03</title>
<path fill="none" stroke="#042d50" d="M142.3,-346.64C144.68,-360.45 147.98,-379.6 150.7,-395.35"/>
<polygon fill="#042d50" stroke="#042d50" points="147.32,-396.34 152.46,-405.6 154.21,-395.15 147.32,-396.34"/>
</g>
<!-- system.ruby.network.routers06 -->
<g id="node7" class="node">
<title>system.ruby.network.routers06</title>
<path fill="#cce6fc" stroke="#000000" d="M224.75,-295.71C224.75,-295.71 254.75,-295.71 254.75,-295.71 260.75,-295.71 266.75,-301.71 266.75,-307.71 266.75,-307.71 266.75,-319.71 266.75,-319.71 266.75,-325.71 260.75,-331.71 254.75,-331.71 254.75,-331.71 224.75,-331.71 224.75,-331.71 218.75,-331.71 212.75,-325.71 212.75,-319.71 212.75,-319.71 212.75,-307.71 212.75,-307.71 212.75,-301.71 218.75,-295.71 224.75,-295.71"/>
<text text-anchor="middle" x="239.75" y="-310.01" font-family="Arial" font-size="14.00" fill="#000000">R 6</text>
</g>
<!-- system.ruby.network.routers02&#45;&#45;system.ruby.network.routers06 -->
<g id="edge19" class="edge">
<title>system.ruby.network.routers02&#45;&#45;system.ruby.network.routers06</title>
<path fill="none" stroke="#042d50" d="M166.36,-324.32C177.43,-322.72 190.41,-320.84 202.35,-319.12"/>
<polygon fill="#042d50" stroke="#042d50" points="203.1,-322.54 212.5,-317.65 202.1,-315.62 203.1,-322.54"/>
</g>
<!-- system.ruby.network.routers07 -->
<g id="node8" class="node">
<title>system.ruby.network.routers07</title>
<path fill="#cce6fc" stroke="#000000" d="M236.92,-395.98C236.92,-395.98 266.92,-395.98 266.92,-395.98 272.92,-395.98 278.92,-401.98 278.92,-407.98 278.92,-407.98 278.92,-419.98 278.92,-419.98 278.92,-425.98 272.92,-431.98 266.92,-431.98 266.92,-431.98 236.92,-431.98 236.92,-431.98 230.92,-431.98 224.92,-425.98 224.92,-419.98 224.92,-419.98 224.92,-407.98 224.92,-407.98 224.92,-401.98 230.92,-395.98 236.92,-395.98"/>
<text text-anchor="middle" x="251.92" y="-410.28" font-family="Arial" font-size="14.00" fill="#000000">R 7</text>
</g>
<!-- system.ruby.network.routers03&#45;&#45;system.ruby.network.routers07 -->
<g id="edge22" class="edge">
<title>system.ruby.network.routers03&#45;&#45;system.ruby.network.routers07</title>
<path fill="none" stroke="#042d50" d="M182.66,-420.89C192.52,-419.91 203.83,-418.78 214.42,-417.72"/>
<polygon fill="#042d50" stroke="#042d50" points="215.09,-421.17 224.69,-416.7 214.4,-414.21 215.09,-421.17"/>
</g>
<!-- system.ruby.network.routers04&#45;&#45;system.ruby.network.routers05 -->
<g id="edge4" class="edge">
<title>system.ruby.network.routers04&#45;&#45;system.ruby.network.routers05</title>
<path fill="none" stroke="#042d50" d="M216.17,-142.11C218.35,-156.9 221.46,-178.04 223.96,-194.99"/>
<polygon fill="#042d50" stroke="#042d50" points="220.5,-195.52 225.42,-204.91 227.43,-194.5 220.5,-195.52"/>
</g>
<!-- system.ruby.network.routers08 -->
<g id="node9" class="node">
<title>system.ruby.network.routers08</title>
<path fill="#cce6fc" stroke="#000000" d="M290.31,-94.41C290.31,-94.41 320.31,-94.41 320.31,-94.41 326.31,-94.41 332.31,-100.41 332.31,-106.41 332.31,-106.41 332.31,-118.41 332.31,-118.41 332.31,-124.41 326.31,-130.41 320.31,-130.41 320.31,-130.41 290.31,-130.41 290.31,-130.41 284.31,-130.41 278.31,-124.41 278.31,-118.41 278.31,-118.41 278.31,-106.41 278.31,-106.41 278.31,-100.41 284.31,-94.41 290.31,-94.41"/>
<text text-anchor="middle" x="305.31" y="-108.71" font-family="Arial" font-size="14.00" fill="#000000">R 8</text>
</g>
<!-- system.ruby.network.routers04&#45;&#45;system.ruby.network.routers08 -->
<g id="edge14" class="edge">
<title>system.ruby.network.routers04&#45;&#45;system.ruby.network.routers08</title>
<path fill="none" stroke="#042d50" d="M240.54,-120.55C249.15,-119.47 258.83,-118.25 268.03,-117.09"/>
<polygon fill="#042d50" stroke="#042d50" points="268.65,-120.54 278.13,-115.82 267.77,-113.6 268.65,-120.54"/>
</g>
<!-- system.ruby.network.routers05&#45;&#45;system.ruby.network.routers06 -->
<g id="edge5" class="edge">
<title>system.ruby.network.routers05&#45;&#45;system.ruby.network.routers06</title>
<path fill="none" stroke="#042d50" d="M230.44,-241.32C232.08,-254.07 234.3,-271.3 236.15,-285.75"/>
<polygon fill="#042d50" stroke="#042d50" points="232.68,-286.2 237.43,-295.68 239.63,-285.31 232.68,-286.2"/>
</g>
<!-- system.ruby.network.routers09 -->
<g id="node10" class="node">
<title>system.ruby.network.routers09</title>
<path fill="#cce6fc" stroke="#000000" d="M300.64,-192.29C300.64,-192.29 330.64,-192.29 330.64,-192.29 336.64,-192.29 342.64,-198.29 342.64,-204.29 342.64,-204.29 342.64,-216.29 342.64,-216.29 342.64,-222.29 336.64,-228.29 330.64,-228.29 330.64,-228.29 300.64,-228.29 300.64,-228.29 294.64,-228.29 288.64,-222.29 288.64,-216.29 288.64,-216.29 288.64,-204.29 288.64,-204.29 288.64,-198.29 294.64,-192.29 300.64,-192.29"/>
<text text-anchor="middle" x="315.64" y="-206.59" font-family="Arial" font-size="14.00" fill="#000000">R 9</text>
</g>
<!-- system.ruby.network.routers05&#45;&#45;system.ruby.network.routers09 -->
<g id="edge17" class="edge">
<title>system.ruby.network.routers05&#45;&#45;system.ruby.network.routers09</title>
<path fill="none" stroke="#042d50" d="M255.31,-219.01C262.64,-217.95 270.69,-216.79 278.47,-215.66"/>
<polygon fill="#042d50" stroke="#042d50" points="279.04,-219.12 288.43,-214.22 278.04,-212.19 279.04,-219.12"/>
</g>
<!-- system.ruby.network.routers06&#45;&#45;system.ruby.network.routers07 -->
<g id="edge6" class="edge">
<title>system.ruby.network.routers06&#45;&#45;system.ruby.network.routers07</title>
<path fill="none" stroke="#042d50" d="M241.98,-332.1C243.8,-347.08 246.4,-368.49 248.48,-385.66"/>
<polygon fill="#042d50" stroke="#042d50" points="245.02,-386.2 249.7,-395.7 251.97,-385.35 245.02,-386.2"/>
</g>
<!-- system.ruby.network.routers10 -->
<g id="node11" class="node">
<title>system.ruby.network.routers10</title>
<path fill="#cce6fc" stroke="#000000" d="M314.64,-283.24C314.64,-283.24 344.64,-283.24 344.64,-283.24 350.64,-283.24 356.64,-289.24 356.64,-295.24 356.64,-295.24 356.64,-307.24 356.64,-307.24 356.64,-313.24 350.64,-319.24 344.64,-319.24 344.64,-319.24 314.64,-319.24 314.64,-319.24 308.64,-319.24 302.64,-313.24 302.64,-307.24 302.64,-307.24 302.64,-295.24 302.64,-295.24 302.64,-289.24 308.64,-283.24 314.64,-283.24"/>
<text text-anchor="middle" x="329.64" y="-297.54" font-family="Arial" font-size="14.00" fill="#000000">R 10</text>
</g>
<!-- system.ruby.network.routers06&#45;&#45;system.ruby.network.routers10 -->
<g id="edge20" class="edge">
<title>system.ruby.network.routers06&#45;&#45;system.ruby.network.routers10</title>
<path fill="none" stroke="#042d50" d="M267.21,-309.9C275.14,-308.8 283.92,-307.58 292.34,-306.41"/>
<polygon fill="#042d50" stroke="#042d50" points="292.93,-309.87 302.35,-305.03 291.96,-302.93 292.93,-309.87"/>
</g>
<!-- system.ruby.network.routers11 -->
<g id="node12" class="node">
<title>system.ruby.network.routers11</title>
<path fill="#cce6fc" stroke="#000000" d="M330.04,-384.18C330.04,-384.18 360.04,-384.18 360.04,-384.18 366.04,-384.18 372.04,-390.18 372.04,-396.18 372.04,-396.18 372.04,-408.18 372.04,-408.18 372.04,-414.18 366.04,-420.18 360.04,-420.18 360.04,-420.18 330.04,-420.18 330.04,-420.18 324.04,-420.18 318.04,-414.18 318.04,-408.18 318.04,-408.18 318.04,-396.18 318.04,-396.18 318.04,-390.18 324.04,-384.18 330.04,-384.18"/>
<text text-anchor="middle" x="345.04" y="-398.48" font-family="Arial" font-size="14.00" fill="#000000">R 11</text>
</g>
<!-- system.ruby.network.routers07&#45;&#45;system.ruby.network.routers11 -->
<g id="edge23" class="edge">
<title>system.ruby.network.routers07&#45;&#45;system.ruby.network.routers11</title>
<path fill="none" stroke="#042d50" d="M279.36,-410.5C288.26,-409.37 298.29,-408.1 307.79,-406.9"/>
<polygon fill="#042d50" stroke="#042d50" points="308.32,-410.36 317.8,-405.63 307.44,-403.42 308.32,-410.36"/>
</g>
<!-- system.ruby.network.routers08&#45;&#45;system.ruby.network.routers09 -->
<g id="edge7" class="edge">
<title>system.ruby.network.routers08&#45;&#45;system.ruby.network.routers09</title>
<path fill="none" stroke="#042d50" d="M307.25,-130.82C308.77,-145.17 310.9,-165.36 312.63,-181.8"/>
<polygon fill="#042d50" stroke="#042d50" points="309.18,-182.38 313.71,-191.96 316.14,-181.65 309.18,-182.38"/>
</g>
<!-- system.ruby.network.routers12 -->
<g id="node13" class="node">
<title>system.ruby.network.routers12</title>
<path fill="#cce6fc" stroke="#000000" d="M385.82,-82.95C385.82,-82.95 415.82,-82.95 415.82,-82.95 421.82,-82.95 427.82,-88.95 427.82,-94.95 427.82,-94.95 427.82,-106.95 427.82,-106.95 427.82,-112.95 421.82,-118.95 415.82,-118.95 415.82,-118.95 385.82,-118.95 385.82,-118.95 379.82,-118.95 373.82,-112.95 373.82,-106.95 373.82,-106.95 373.82,-94.95 373.82,-94.95 373.82,-88.95 379.82,-82.95 385.82,-82.95"/>
<text text-anchor="middle" x="400.82" y="-97.25" font-family="Arial" font-size="14.00" fill="#000000">R 12</text>
</g>
<!-- system.ruby.network.routers08&#45;&#45;system.ruby.network.routers12 -->
<g id="edge15" class="edge">
<title>system.ruby.network.routers08&#45;&#45;system.ruby.network.routers12</title>
<path fill="none" stroke="#042d50" d="M332.42,-109.16C342.1,-107.99 353.18,-106.67 363.57,-105.42"/>
<polygon fill="#042d50" stroke="#042d50" points="364.13,-108.88 373.64,-104.21 363.29,-101.93 364.13,-108.88"/>
</g>
<!-- system.ruby.network.routers09&#45;&#45;system.ruby.network.routers10 -->
<g id="edge8" class="edge">
<title>system.ruby.network.routers09&#45;&#45;system.ruby.network.routers10</title>
<path fill="none" stroke="#042d50" d="M318.48,-228.69C320.44,-241.48 323.1,-258.74 325.33,-273.23"/>
<polygon fill="#042d50" stroke="#042d50" points="321.88,-273.82 326.86,-283.18 328.8,-272.76 321.88,-273.82"/>
</g>
<!-- system.ruby.network.routers13 -->
<g id="node14" class="node">
<title>system.ruby.network.routers13</title>
<path fill="#cce6fc" stroke="#000000" d="M402.25,-177.02C402.25,-177.02 432.25,-177.02 432.25,-177.02 438.25,-177.02 444.25,-183.02 444.25,-189.02 444.25,-189.02 444.25,-201.02 444.25,-201.02 444.25,-207.02 438.25,-213.02 432.25,-213.02 432.25,-213.02 402.25,-213.02 402.25,-213.02 396.25,-213.02 390.25,-207.02 390.25,-201.02 390.25,-201.02 390.25,-189.02 390.25,-189.02 390.25,-183.02 396.25,-177.02 402.25,-177.02"/>
<text text-anchor="middle" x="417.25" y="-191.32" font-family="Arial" font-size="14.00" fill="#000000">R 13</text>
</g>
<!-- system.ruby.network.routers09&#45;&#45;system.ruby.network.routers13 -->
<g id="edge18" class="edge">
<title>system.ruby.network.routers09&#45;&#45;system.ruby.network.routers13</title>
<path fill="none" stroke="#042d50" d="M342.87,-206.2C354.26,-204.48 367.68,-202.47 379.97,-200.62"/>
<polygon fill="#042d50" stroke="#042d50" points="380.58,-204.07 389.95,-199.12 379.54,-197.15 380.58,-204.07"/>
</g>
<!-- system.ruby.network.routers10&#45;&#45;system.ruby.network.routers11 -->
<g id="edge9" class="edge">
<title>system.ruby.network.routers10&#45;&#45;system.ruby.network.routers11</title>
<path fill="none" stroke="#042d50" d="M332.4,-319.29C334.7,-334.41 338.04,-356.26 340.7,-373.74"/>
<polygon fill="#042d50" stroke="#042d50" points="337.29,-374.59 342.26,-383.95 344.21,-373.54 337.29,-374.59"/>
</g>
<!-- system.ruby.network.routers14 -->
<g id="node15" class="node">
<title>system.ruby.network.routers14</title>
<path fill="#cce6fc" stroke="#000000" d="M414.38,-270.67C414.38,-270.67 444.38,-270.67 444.38,-270.67 450.38,-270.67 456.38,-276.67 456.38,-282.67 456.38,-282.67 456.38,-294.67 456.38,-294.67 456.38,-300.67 450.38,-306.67 444.38,-306.67 444.38,-306.67 414.38,-306.67 414.38,-306.67 408.38,-306.67 402.38,-300.67 402.38,-294.67 402.38,-294.67 402.38,-282.67 402.38,-282.67 402.38,-276.67 408.38,-270.67 414.38,-270.67"/>
<text text-anchor="middle" x="429.38" y="-284.97" font-family="Arial" font-size="14.00" fill="#000000">R 14</text>
</g>
<!-- system.ruby.network.routers10&#45;&#45;system.ruby.network.routers14 -->
<g id="edge21" class="edge">
<title>system.ruby.network.routers10&#45;&#45;system.ruby.network.routers14</title>
<path fill="none" stroke="#042d50" d="M356.9,-297.81C367.78,-296.44 380.49,-294.83 392.2,-293.36"/>
<polygon fill="#042d50" stroke="#042d50" points="392.68,-296.83 402.16,-292.1 391.8,-289.88 392.68,-296.83"/>
</g>
<!-- system.ruby.network.routers15 -->
<g id="node16" class="node">
<title>system.ruby.network.routers15</title>
<path fill="#cce6fc" stroke="#000000" d="M425.09,-366.87C425.09,-366.87 455.09,-366.87 455.09,-366.87 461.09,-366.87 467.09,-372.87 467.09,-378.87 467.09,-378.87 467.09,-390.87 467.09,-390.87 467.09,-396.87 461.09,-402.87 455.09,-402.87 455.09,-402.87 425.09,-402.87 425.09,-402.87 419.09,-402.87 413.09,-396.87 413.09,-390.87 413.09,-390.87 413.09,-378.87 413.09,-378.87 413.09,-372.87 419.09,-366.87 425.09,-366.87"/>
<text text-anchor="middle" x="440.09" y="-381.17" font-family="Arial" font-size="14.00" fill="#000000">R 15</text>
</g>
<!-- system.ruby.network.routers11&#45;&#45;system.ruby.network.routers15 -->
<g id="edge24" class="edge">
<title>system.ruby.network.routers11&#45;&#45;system.ruby.network.routers15</title>
<path fill="none" stroke="#042d50" d="M372.28,-397.22C381.82,-395.48 392.71,-393.5 402.93,-391.64"/>
<polygon fill="#042d50" stroke="#042d50" points="403.64,-395.07 412.85,-389.83 402.38,-388.18 403.64,-395.07"/>
</g>
<!-- system.ruby.network.routers12&#45;&#45;system.ruby.network.routers13 -->
<g id="edge10" class="edge">
<title>system.ruby.network.routers12&#45;&#45;system.ruby.network.routers13</title>
<path fill="none" stroke="#042d50" d="M403.99,-119.09C406.36,-132.62 409.63,-151.37 412.33,-166.85"/>
<polygon fill="#042d50" stroke="#042d50" points="408.93,-167.69 414.1,-176.94 415.82,-166.49 408.93,-167.69"/>
</g>
<!-- system.ruby.network.routers13&#45;&#45;system.ruby.network.routers14 -->
<g id="edge11" class="edge">
<title>system.ruby.network.routers13&#45;&#45;system.ruby.network.routers14</title>
<path fill="none" stroke="#042d50" d="M419.59,-213.08C421.34,-226.55 423.75,-245.21 425.75,-260.62"/>
<polygon fill="#042d50" stroke="#042d50" points="422.29,-261.2 427.05,-270.67 429.24,-260.3 422.29,-261.2"/>
</g>
<!-- system.ruby.network.routers14&#45;&#45;system.ruby.network.routers15 -->
<g id="edge12" class="edge">
<title>system.ruby.network.routers14&#45;&#45;system.ruby.network.routers15</title>
<path fill="none" stroke="#042d50" d="M431.4,-306.77C432.97,-320.87 435.18,-340.72 436.97,-356.87"/>
<polygon fill="#042d50" stroke="#042d50" points="433.5,-357.31 438.09,-366.86 440.46,-356.53 433.5,-357.31"/>
</g>
<!-- system.ruby.l1_cntrl0 -->
<g id="node17" class="node">
<title>system.ruby.l1_cntrl0</title>
<path fill="#e5bcd0" stroke="#000000" d="M46.6,-49.01C46.6,-49.01 90.6,-49.01 90.6,-49.01 96.6,-49.01 102.6,-55.01 102.6,-61.01 102.6,-61.01 102.6,-73.01 102.6,-73.01 102.6,-79.01 96.6,-85.01 90.6,-85.01 90.6,-85.01 46.6,-85.01 46.6,-85.01 40.6,-85.01 34.6,-79.01 34.6,-73.01 34.6,-73.01 34.6,-61.01 34.6,-61.01 34.6,-55.01 40.6,-49.01 46.6,-49.01"/>
<text text-anchor="middle" x="68.6" y="-63.31" font-family="Arial" font-size="14.00" fill="#000000">l1_cntrl0</text>
</g>
<!-- system.ruby.l1_cntrl0&#45;&#45;system.ruby.network.routers00 -->
<g id="edge25" class="edge">
<title>system.ruby.l1_cntrl0&#45;&#45;system.ruby.network.routers00</title>
<path fill="none" stroke="#381526" d="M86.8,-93.56C90.99,-99.67 95.44,-106.17 99.64,-112.29"/>
<polygon fill="#381526" stroke="#381526" points="89.61,-91.46 81.07,-85.19 83.83,-95.42 89.61,-91.46"/>
<polygon fill="#381526" stroke="#381526" points="96.99,-114.62 105.53,-120.89 102.77,-110.66 96.99,-114.62"/>
</g>
<!-- system.ruby.l1_cntrl1 -->
<g id="node18" class="node">
<title>system.ruby.l1_cntrl1</title>
<path fill="#e5bcd0" stroke="#000000" d="M22.2,-229.04C22.2,-229.04 66.2,-229.04 66.2,-229.04 72.2,-229.04 78.2,-235.04 78.2,-241.04 78.2,-241.04 78.2,-253.04 78.2,-253.04 78.2,-259.04 72.2,-265.04 66.2,-265.04 66.2,-265.04 22.2,-265.04 22.2,-265.04 16.2,-265.04 10.2,-259.04 10.2,-253.04 10.2,-253.04 10.2,-241.04 10.2,-241.04 10.2,-235.04 16.2,-229.04 22.2,-229.04"/>
<text text-anchor="middle" x="44.2" y="-243.34" font-family="Arial" font-size="14.00" fill="#000000">l1_cntrl1</text>
</g>
<!-- system.ruby.l1_cntrl1&#45;&#45;system.ruby.network.routers01 -->
<g id="edge26" class="edge">
<title>system.ruby.l1_cntrl1&#45;&#45;system.ruby.network.routers01</title>
<path fill="none" stroke="#381526" d="M88.44,-240.62C88.8,-240.57 89.15,-240.52 89.51,-240.46"/>
<polygon fill="#381526" stroke="#381526" points="87.71,-237.19 78.32,-242.09 88.72,-244.11 87.71,-237.19"/>
<polygon fill="#381526" stroke="#381526" points="90.29,-243.89 99.69,-238.99 89.29,-236.96 90.29,-243.89"/>
</g>
<!-- system.ruby.l1_cntrl2 -->
<g id="node19" class="node">
<title>system.ruby.l1_cntrl2</title>
<path fill="#e5bcd0" stroke="#000000" d="M34.15,-320.03C34.15,-320.03 78.15,-320.03 78.15,-320.03 84.15,-320.03 90.15,-326.03 90.15,-332.03 90.15,-332.03 90.15,-344.03 90.15,-344.03 90.15,-350.03 84.15,-356.03 78.15,-356.03 78.15,-356.03 34.15,-356.03 34.15,-356.03 28.15,-356.03 22.15,-350.03 22.15,-344.03 22.15,-344.03 22.15,-332.03 22.15,-332.03 22.15,-326.03 28.15,-320.03 34.15,-320.03"/>
<text text-anchor="middle" x="56.15" y="-334.33" font-family="Arial" font-size="14.00" fill="#000000">l1_cntrl2</text>
</g>
<!-- system.ruby.l1_cntrl2&#45;&#45;system.ruby.network.routers02 -->
<g id="edge27" class="edge">
<title>system.ruby.l1_cntrl2&#45;&#45;system.ruby.network.routers02</title>
<path fill="none" stroke="#381526" d="M100.32,-332.83C100.82,-332.77 101.32,-332.71 101.82,-332.66"/>
<polygon fill="#381526" stroke="#381526" points="99.91,-329.36 90.38,-334 100.72,-336.31 99.91,-329.36"/>
<polygon fill="#381526" stroke="#381526" points="102.55,-336.09 112.08,-331.45 101.73,-329.14 102.55,-336.09"/>
</g>
<!-- system.ruby.l1_cntrl3 -->
<g id="node20" class="node">
<title>system.ruby.l1_cntrl3</title>
<path fill="#e5bcd0" stroke="#000000" d="M104.2,-487.89C104.2,-487.89 148.2,-487.89 148.2,-487.89 154.2,-487.89 160.2,-493.89 160.2,-499.89 160.2,-499.89 160.2,-511.89 160.2,-511.89 160.2,-517.89 154.2,-523.89 148.2,-523.89 148.2,-523.89 104.2,-523.89 104.2,-523.89 98.2,-523.89 92.2,-517.89 92.2,-511.89 92.2,-511.89 92.2,-499.89 92.2,-499.89 92.2,-493.89 98.2,-487.89 104.2,-487.89"/>
<text text-anchor="middle" x="126.2" y="-502.19" font-family="Arial" font-size="14.00" fill="#000000">l1_cntrl3</text>
</g>
<!-- system.ruby.l1_cntrl3&#45;&#45;system.ruby.network.routers03 -->
<g id="edge28" class="edge">
<title>system.ruby.l1_cntrl3&#45;&#45;system.ruby.network.routers03</title>
<path fill="none" stroke="#381526" d="M136.13,-478.08C139.2,-469.47 142.58,-460 145.65,-451.4"/>
<polygon fill="#381526" stroke="#381526" points="132.79,-477.03 132.72,-487.63 139.38,-479.39 132.79,-477.03"/>
<polygon fill="#381526" stroke="#381526" points="149,-452.41 149.07,-441.81 142.41,-450.05 149,-452.41"/>
</g>
<!-- system.ruby.l1_cntrl4 -->
<g id="node21" class="node">
<title>system.ruby.l1_cntrl4</title>
<path fill="#e5bcd0" stroke="#000000" d="M145.66,-37.52C145.66,-37.52 189.66,-37.52 189.66,-37.52 195.66,-37.52 201.66,-43.52 201.66,-49.52 201.66,-49.52 201.66,-61.52 201.66,-61.52 201.66,-67.52 195.66,-73.52 189.66,-73.52 189.66,-73.52 145.66,-73.52 145.66,-73.52 139.66,-73.52 133.66,-67.52 133.66,-61.52 133.66,-61.52 133.66,-49.52 133.66,-49.52 133.66,-43.52 139.66,-37.52 145.66,-37.52"/>
<text text-anchor="middle" x="167.66" y="-51.82" font-family="Arial" font-size="14.00" fill="#000000">l1_cntrl4</text>
</g>
<!-- system.ruby.l1_cntrl4&#45;&#45;system.ruby.network.routers04 -->
<g id="edge29" class="edge">
<title>system.ruby.l1_cntrl4&#45;&#45;system.ruby.network.routers04</title>
<path fill="none" stroke="#381526" d="M185.61,-82.32C188.87,-87.19 192.27,-92.26 195.53,-97.12"/>
<polygon fill="#381526" stroke="#381526" points="188.42,-80.22 179.94,-73.86 182.6,-84.11 188.42,-80.22"/>
<polygon fill="#381526" stroke="#381526" points="192.71,-99.2 201.18,-105.56 198.52,-95.3 192.71,-99.2"/>
</g>
<!-- system.ruby.l1_cntrl5 -->
<g id="node22" class="node">
<title>system.ruby.l1_cntrl5</title>
<path fill="#e5bcd0" stroke="#000000" d="M173.23,-156.01C173.23,-156.01 217.23,-156.01 217.23,-156.01 223.23,-156.01 229.23,-162.01 229.23,-168.01 229.23,-168.01 229.23,-180.01 229.23,-180.01 229.23,-186.01 223.23,-192.01 217.23,-192.01 217.23,-192.01 173.23,-192.01 173.23,-192.01 167.23,-192.01 161.23,-186.01 161.23,-180.01 161.23,-180.01 161.23,-168.01 161.23,-168.01 161.23,-162.01 167.23,-156.01 173.23,-156.01"/>
<text text-anchor="middle" x="195.23" y="-170.31" font-family="Arial" font-size="14.00" fill="#000000">l1_cntrl5</text>
</g>
<!-- system.ruby.l1_cntrl5&#45;&#45;system.ruby.network.routers05 -->
<g id="edge30" class="edge">
<title>system.ruby.l1_cntrl5&#45;&#45;system.ruby.network.routers05</title>
<path fill="none" stroke="#381526" d="M213.05,-200.55C213.11,-200.64 213.17,-200.73 213.23,-200.82"/>
<polygon fill="#381526" stroke="#381526" points="215.94,-198.59 207.46,-192.23 210.13,-202.49 215.94,-198.59"/>
<polygon fill="#381526" stroke="#381526" points="207.47,-198.52 215.95,-204.88 213.28,-194.62 207.47,-198.52"/>
</g>
<!-- system.ruby.l1_cntrl6 -->
<g id="node23" class="node">
<title>system.ruby.l1_cntrl6</title>
<path fill="#e5bcd0" stroke="#000000" d="M200.09,-351.37C200.09,-351.37 244.09,-351.37 244.09,-351.37 250.09,-351.37 256.09,-357.37 256.09,-363.37 256.09,-363.37 256.09,-375.37 256.09,-375.37 256.09,-381.37 250.09,-387.37 244.09,-387.37 244.09,-387.37 200.09,-387.37 200.09,-387.37 194.09,-387.37 188.09,-381.37 188.09,-375.37 188.09,-375.37 188.09,-363.37 188.09,-363.37 188.09,-357.37 194.09,-351.37 200.09,-351.37"/>
<text text-anchor="middle" x="222.09" y="-365.67" font-family="Arial" font-size="14.00" fill="#000000">l1_cntrl6</text>
</g>
<!-- system.ruby.l1_cntrl6&#45;&#45;system.ruby.network.routers06 -->
<g id="edge31" class="edge">
<title>system.ruby.l1_cntrl6&#45;&#45;system.ruby.network.routers06</title>
<path fill="none" stroke="#381526" d="M230.94,-341.46C230.97,-341.36 231.01,-341.25 231.04,-341.15"/>
<polygon fill="#381526" stroke="#381526" points="227.56,-340.55 227.87,-351.14 234.23,-342.67 227.56,-340.55"/>
<polygon fill="#381526" stroke="#381526" points="234.32,-342.37 234.01,-331.78 227.65,-340.26 234.32,-342.37"/>
</g>
<!-- system.ruby.l1_cntrl7 -->
<g id="node24" class="node">
<title>system.ruby.l1_cntrl7</title>
<path fill="#e5bcd0" stroke="#000000" d="M242.16,-478.71C242.16,-478.71 286.16,-478.71 286.16,-478.71 292.16,-478.71 298.16,-484.71 298.16,-490.71 298.16,-490.71 298.16,-502.71 298.16,-502.71 298.16,-508.71 292.16,-514.71 286.16,-514.71 286.16,-514.71 242.16,-514.71 242.16,-514.71 236.16,-514.71 230.16,-508.71 230.16,-502.71 230.16,-502.71 230.16,-490.71 230.16,-490.71 230.16,-484.71 236.16,-478.71 242.16,-478.71"/>
<text text-anchor="middle" x="264.16" y="-493.01" font-family="Arial" font-size="14.00" fill="#000000">l1_cntrl7</text>
</g>
<!-- system.ruby.l1_cntrl7&#45;&#45;system.ruby.network.routers07 -->
<g id="edge32" class="edge">
<title>system.ruby.l1_cntrl7&#45;&#45;system.ruby.network.routers07</title>
<path fill="none" stroke="#381526" d="M259.96,-468.31C258.71,-459.85 257.34,-450.58 256.09,-442.14"/>
<polygon fill="#381526" stroke="#381526" points="256.52,-468.96 261.44,-478.34 263.44,-467.94 256.52,-468.96"/>
<polygon fill="#381526" stroke="#381526" points="259.51,-441.38 254.59,-432 252.59,-442.41 259.51,-441.38"/>
</g>
<!-- system.ruby.l1_cntrl8 -->
<g id="node25" class="node">
<title>system.ruby.l1_cntrl8</title>
<path fill="#e5bcd0" stroke="#000000" d="M309.78,-16.63C309.78,-16.63 353.78,-16.63 353.78,-16.63 359.78,-16.63 365.78,-22.63 365.78,-28.63 365.78,-28.63 365.78,-40.63 365.78,-40.63 365.78,-46.63 359.78,-52.63 353.78,-52.63 353.78,-52.63 309.78,-52.63 309.78,-52.63 303.78,-52.63 297.78,-46.63 297.78,-40.63 297.78,-40.63 297.78,-28.63 297.78,-28.63 297.78,-22.63 303.78,-16.63 309.78,-16.63"/>
<text text-anchor="middle" x="331.78" y="-30.93" font-family="Arial" font-size="14.00" fill="#000000">l1_cntrl8</text>
</g>
<!-- system.ruby.l1_cntrl8&#45;&#45;system.ruby.network.routers08 -->
<g id="edge33" class="edge">
<title>system.ruby.l1_cntrl8&#45;&#45;system.ruby.network.routers08</title>
<path fill="none" stroke="#381526" d="M322.35,-62.34C319.93,-69.45 317.32,-77.11 314.89,-84.24"/>
<polygon fill="#381526" stroke="#381526" points="325.73,-63.27 325.64,-52.67 319.11,-61.01 325.73,-63.27"/>
<polygon fill="#381526" stroke="#381526" points="311.41,-83.6 311.5,-94.2 318.04,-85.86 311.41,-83.6"/>
</g>
<!-- system.ruby.l1_cntrl9 -->
<g id="node26" class="node">
<title>system.ruby.l1_cntrl9</title>
<path fill="#e5bcd0" stroke="#000000" d="M320.34,-137.8C320.34,-137.8 364.34,-137.8 364.34,-137.8 370.34,-137.8 376.34,-143.8 376.34,-149.8 376.34,-149.8 376.34,-161.8 376.34,-161.8 376.34,-167.8 370.34,-173.8 364.34,-173.8 364.34,-173.8 320.34,-173.8 320.34,-173.8 314.34,-173.8 308.34,-167.8 308.34,-161.8 308.34,-161.8 308.34,-149.8 308.34,-149.8 308.34,-143.8 314.34,-137.8 320.34,-137.8"/>
<text text-anchor="middle" x="342.34" y="-152.1" font-family="Arial" font-size="14.00" fill="#000000">l1_cntrl9</text>
</g>
<!-- system.ruby.l1_cntrl9&#45;&#45;system.ruby.network.routers09 -->
<g id="edge34" class="edge">
<title>system.ruby.l1_cntrl9&#45;&#45;system.ruby.network.routers09</title>
<path fill="none" stroke="#381526" d="M329.02,-182.99C328.97,-183.08 328.93,-183.18 328.88,-183.28"/>
<polygon fill="#381526" stroke="#381526" points="332.19,-184.47 333.45,-173.95 325.91,-181.39 332.19,-184.47"/>
<polygon fill="#381526" stroke="#381526" points="325.84,-181.52 324.59,-192.04 332.13,-184.6 325.84,-181.52"/>
</g>
<!-- system.ruby.l1_cntrl10 -->
<g id="node27" class="node">
<title>system.ruby.l1_cntrl10</title>
<path fill="#e5bcd0" stroke="#000000" d="M360.06,-304.61C360.06,-304.61 411.06,-304.61 411.06,-304.61 417.06,-304.61 423.06,-310.61 423.06,-316.61 423.06,-316.61 423.06,-328.61 423.06,-328.61 423.06,-334.61 417.06,-340.61 411.06,-340.61 411.06,-340.61 360.06,-340.61 360.06,-340.61 354.06,-340.61 348.06,-334.61 348.06,-328.61 348.06,-328.61 348.06,-316.61 348.06,-316.61 348.06,-310.61 354.06,-304.61 360.06,-304.61"/>
<text text-anchor="middle" x="385.56" y="-318.91" font-family="Arial" font-size="14.00" fill="#000000">l1_cntrl10</text>
</g>
<!-- system.ruby.l1_cntrl10&#45;&#45;system.ruby.network.routers10 -->
<g id="edge35" class="edge">
<title>system.ruby.l1_cntrl10&#45;&#45;system.ruby.network.routers10</title>
<path fill="none" stroke="#381526" d="M347.71,-308.15C347.68,-308.13 347.64,-308.12 347.6,-308.1"/>
<polygon fill="#381526" stroke="#381526" points="337.36,-307.94 347.95,-308.24 339.86,-301.4 337.36,-307.94"/>
<polygon fill="#381526" stroke="#381526" points="358.07,-308.36 347.48,-308.06 355.57,-314.9 358.07,-308.36"/>
</g>
<!-- system.ruby.l1_cntrl11 -->
<g id="node28" class="node">
<title>system.ruby.l1_cntrl11</title>
<path fill="#e5bcd0" stroke="#000000" d="M330.17,-467.14C330.17,-467.14 380.17,-467.14 380.17,-467.14 386.17,-467.14 392.17,-473.14 392.17,-479.14 392.17,-479.14 392.17,-491.14 392.17,-491.14 392.17,-497.14 386.17,-503.14 380.17,-503.14 380.17,-503.14 330.17,-503.14 330.17,-503.14 324.17,-503.14 318.17,-497.14 318.17,-491.14 318.17,-491.14 318.17,-479.14 318.17,-479.14 318.17,-473.14 324.17,-467.14 330.17,-467.14"/>
<text text-anchor="middle" x="355.17" y="-481.44" font-family="Arial" font-size="14.00" fill="#000000">l1_cntrl11</text>
</g>
<!-- system.ruby.l1_cntrl11&#45;&#45;system.ruby.network.routers11 -->
<g id="edge36" class="edge">
<title>system.ruby.l1_cntrl11&#45;&#45;system.ruby.network.routers11</title>
<path fill="none" stroke="#381526" d="M351.75,-457.07C350.7,-448.47 349.54,-439.01 348.49,-430.4"/>
<polygon fill="#381526" stroke="#381526" points="348.29,-457.64 352.98,-467.14 355.24,-456.79 348.29,-457.64"/>
<polygon fill="#381526" stroke="#381526" points="351.96,-429.93 347.27,-420.43 345.01,-430.78 351.96,-429.93"/>
</g>
<!-- system.ruby.l1_cntrl12 -->
<g id="node29" class="node">
<title>system.ruby.l1_cntrl12</title>
<path fill="#e5bcd0" stroke="#000000" d="M404.25,-0.5C404.25,-0.5 455.25,-0.5 455.25,-0.5 461.25,-0.5 467.25,-6.5 467.25,-12.5 467.25,-12.5 467.25,-24.5 467.25,-24.5 467.25,-30.5 461.25,-36.5 455.25,-36.5 455.25,-36.5 404.25,-36.5 404.25,-36.5 398.25,-36.5 392.25,-30.5 392.25,-24.5 392.25,-24.5 392.25,-12.5 392.25,-12.5 392.25,-6.5 398.25,-0.5 404.25,-0.5"/>
<text text-anchor="middle" x="429.75" y="-14.8" font-family="Arial" font-size="14.00" fill="#000000">l1_cntrl12</text>
</g>
<!-- system.ruby.l1_cntrl12&#45;&#45;system.ruby.network.routers12 -->
<g id="edge37" class="edge">
<title>system.ruby.l1_cntrl12&#45;&#45;system.ruby.network.routers12</title>
<path fill="none" stroke="#381526" d="M419.97,-46.37C416.95,-54.99 413.62,-64.48 410.6,-73.09"/>
<polygon fill="#381526" stroke="#381526" points="423.32,-47.39 423.33,-36.8 416.72,-45.08 423.32,-47.39"/>
<polygon fill="#381526" stroke="#381526" points="407.23,-72.11 407.23,-82.7 413.84,-74.43 407.23,-72.11"/>
</g>
<!-- system.ruby.l1_cntrl13 -->
<g id="node30" class="node">
<title>system.ruby.l1_cntrl13</title>
<path fill="#e5bcd0" stroke="#000000" d="M474.83,-167.23C474.83,-167.23 525.83,-167.23 525.83,-167.23 531.83,-167.23 537.83,-173.23 537.83,-179.23 537.83,-179.23 537.83,-191.23 537.83,-191.23 537.83,-197.23 531.83,-203.23 525.83,-203.23 525.83,-203.23 474.83,-203.23 474.83,-203.23 468.83,-203.23 462.83,-197.23 462.83,-191.23 462.83,-191.23 462.83,-179.23 462.83,-179.23 462.83,-173.23 468.83,-167.23 474.83,-167.23"/>
<text text-anchor="middle" x="500.33" y="-181.53" font-family="Arial" font-size="14.00" fill="#000000">l1_cntrl13</text>
</g>
<!-- system.ruby.l1_cntrl13&#45;&#45;system.ruby.network.routers13 -->
<g id="edge38" class="edge">
<title>system.ruby.l1_cntrl13&#45;&#45;system.ruby.network.routers13</title>
<path fill="none" stroke="#381526" d="M452.53,-190.86C452.44,-190.87 452.35,-190.88 452.27,-190.89"/>
<polygon fill="#381526" stroke="#381526" points="453.16,-194.31 462.68,-189.67 452.34,-187.36 453.16,-194.31"/>
<polygon fill="#381526" stroke="#381526" points="453.86,-187.18 444.34,-191.83 454.68,-194.13 453.86,-187.18"/>
</g>
<!-- system.ruby.l1_cntrl14 -->
<g id="node31" class="node">
<title>system.ruby.l1_cntrl14</title>
<path fill="#e5bcd0" stroke="#000000" d="M482.13,-296.66C482.13,-296.66 533.13,-296.66 533.13,-296.66 539.13,-296.66 545.13,-302.66 545.13,-308.66 545.13,-308.66 545.13,-320.66 545.13,-320.66 545.13,-326.66 539.13,-332.66 533.13,-332.66 533.13,-332.66 482.13,-332.66 482.13,-332.66 476.13,-332.66 470.13,-326.66 470.13,-320.66 470.13,-320.66 470.13,-308.66 470.13,-308.66 470.13,-302.66 476.13,-296.66 482.13,-296.66"/>
<text text-anchor="middle" x="507.63" y="-310.96" font-family="Arial" font-size="14.00" fill="#000000">l1_cntrl14</text>
</g>
<!-- system.ruby.l1_cntrl14&#45;&#45;system.ruby.network.routers14 -->
<g id="edge39" class="edge">
<title>system.ruby.l1_cntrl14&#45;&#45;system.ruby.network.routers14</title>
<path fill="none" stroke="#381526" d="M460.16,-298.89C460,-298.84 459.84,-298.79 459.69,-298.74"/>
<polygon fill="#381526" stroke="#381526" points="459.29,-302.29 469.88,-302.12 461.49,-295.65 459.29,-302.29"/>
<polygon fill="#381526" stroke="#381526" points="467.04,-297.49 456.45,-297.66 464.84,-304.14 467.04,-297.49"/>
</g>
<!-- system.ruby.l1_cntrl15 -->
<g id="node32" class="node">
<title>system.ruby.l1_cntrl15</title>
<path fill="#e5bcd0" stroke="#000000" d="M465.46,-437.88C465.46,-437.88 516.46,-437.88 516.46,-437.88 522.46,-437.88 528.46,-443.88 528.46,-449.88 528.46,-449.88 528.46,-461.88 528.46,-461.88 528.46,-467.88 522.46,-473.88 516.46,-473.88 516.46,-473.88 465.46,-473.88 465.46,-473.88 459.46,-473.88 453.46,-467.88 453.46,-461.88 453.46,-461.88 453.46,-449.88 453.46,-449.88 453.46,-443.88 459.46,-437.88 465.46,-437.88"/>
<text text-anchor="middle" x="490.96" y="-452.18" font-family="Arial" font-size="14.00" fill="#000000">l1_cntrl15</text>
</g>
<!-- system.ruby.l1_cntrl15&#45;&#45;system.ruby.network.routers15 -->
<g id="edge40" class="edge">
<title>system.ruby.l1_cntrl15&#45;&#45;system.ruby.network.routers15</title>
<path fill="none" stroke="#381526" d="M471.91,-429.29C467.75,-423.48 463.35,-417.34 459.19,-411.53"/>
<polygon fill="#381526" stroke="#381526" points="469.19,-431.5 477.86,-437.59 474.88,-427.42 469.19,-431.5"/>
<polygon fill="#381526" stroke="#381526" points="461.99,-409.43 453.32,-403.34 456.3,-413.51 461.99,-409.43"/>
</g>
<!-- system.ruby.dir_cntrl0 -->
<g id="node33" class="node">
<title>system.ruby.dir_cntrl0</title>
<path fill="#e5bcd0" stroke="#000000" d="M12,-90.9C12,-90.9 60,-90.9 60,-90.9 66,-90.9 72,-96.9 72,-102.9 72,-102.9 72,-114.9 72,-114.9 72,-120.9 66,-126.9 60,-126.9 60,-126.9 12,-126.9 12,-126.9 6,-126.9 0,-120.9 0,-114.9 0,-114.9 0,-102.9 0,-102.9 0,-96.9 6,-90.9 12,-90.9"/>
<text text-anchor="middle" x="36" y="-105.2" font-family="Arial" font-size="14.00" fill="#000000">dir_cntrl0</text>
</g>
<!-- system.ruby.dir_cntrl0&#45;&#45;system.ruby.network.routers00 -->
<g id="edge41" class="edge">
<title>system.ruby.dir_cntrl0&#45;&#45;system.ruby.network.routers00</title>
<path fill="none" stroke="#381526" d="M81.8,-125.75C81.89,-125.79 81.98,-125.82 82.08,-125.86"/>
<polygon fill="#381526" stroke="#381526" points="82.8,-122.39 72.2,-122.22 80.38,-128.96 82.8,-122.39"/>
<polygon fill="#381526" stroke="#381526" points="80.01,-128.83 90.6,-128.99 82.43,-122.26 80.01,-128.83"/>
</g>
<!-- system.ruby.dir_cntrl1 -->
<g id="node34" class="node">
<title>system.ruby.dir_cntrl1</title>
<path fill="#e5bcd0" stroke="#000000" d="M25.45,-190.09C25.45,-190.09 73.45,-190.09 73.45,-190.09 79.45,-190.09 85.45,-196.09 85.45,-202.09 85.45,-202.09 85.45,-214.09 85.45,-214.09 85.45,-220.09 79.45,-226.09 73.45,-226.09 73.45,-226.09 25.45,-226.09 25.45,-226.09 19.45,-226.09 13.45,-220.09 13.45,-214.09 13.45,-214.09 13.45,-202.09 13.45,-202.09 13.45,-196.09 19.45,-190.09 25.45,-190.09"/>
<text text-anchor="middle" x="49.45" y="-204.39" font-family="Arial" font-size="14.00" fill="#000000">dir_cntrl1</text>
</g>
<!-- system.ruby.dir_cntrl1&#45;&#45;system.ruby.network.routers01 -->
<g id="edge42" class="edge">
<title>system.ruby.dir_cntrl1&#45;&#45;system.ruby.network.routers01</title>
<path fill="none" stroke="#381526" d="M95.22,-224.01C95.31,-224.04 95.41,-224.07 95.5,-224.11"/>
<polygon fill="#381526" stroke="#381526" points="96.05,-220.59 85.46,-220.61 93.75,-227.21 96.05,-220.59"/>
<polygon fill="#381526" stroke="#381526" points="88.97,-225.54 99.56,-225.52 91.27,-218.93 88.97,-225.54"/>
</g>
<!-- system.ruby.dir_cntrl2 -->
<g id="node35" class="node">
<title>system.ruby.dir_cntrl2</title>
<path fill="#e5bcd0" stroke="#000000" d="M47.06,-356.36C47.06,-356.36 95.06,-356.36 95.06,-356.36 101.06,-356.36 107.06,-362.36 107.06,-368.36 107.06,-368.36 107.06,-380.36 107.06,-380.36 107.06,-386.36 101.06,-392.36 95.06,-392.36 95.06,-392.36 47.06,-392.36 47.06,-392.36 41.06,-392.36 35.06,-386.36 35.06,-380.36 35.06,-380.36 35.06,-368.36 35.06,-368.36 35.06,-362.36 41.06,-356.36 47.06,-356.36"/>
<text text-anchor="middle" x="71.06" y="-370.66" font-family="Arial" font-size="14.00" fill="#000000">dir_cntrl2</text>
</g>
<!-- system.ruby.dir_cntrl2&#45;&#45;system.ruby.network.routers02 -->
<g id="edge43" class="edge">
<title>system.ruby.dir_cntrl2&#45;&#45;system.ruby.network.routers02</title>
<path fill="none" stroke="#381526" d="M106.56,-350.32C106.68,-350.23 106.81,-350.15 106.93,-350.07"/>
<polygon fill="#381526" stroke="#381526" points="104.28,-347.63 97.96,-356.14 108.21,-353.43 104.28,-347.63"/>
<polygon fill="#381526" stroke="#381526" points="106.11,-354.85 112.42,-346.35 102.18,-349.06 106.11,-354.85"/>
</g>
<!-- system.ruby.dir_cntrl3 -->
<g id="node36" class="node">
<title>system.ruby.dir_cntrl3</title>
<path fill="#e5bcd0" stroke="#000000" d="M60.05,-455.76C60.05,-455.76 108.05,-455.76 108.05,-455.76 114.05,-455.76 120.05,-461.76 120.05,-467.76 120.05,-467.76 120.05,-479.76 120.05,-479.76 120.05,-485.76 114.05,-491.76 108.05,-491.76 108.05,-491.76 60.05,-491.76 60.05,-491.76 54.05,-491.76 48.05,-485.76 48.05,-479.76 48.05,-479.76 48.05,-467.76 48.05,-467.76 48.05,-461.76 54.05,-455.76 60.05,-455.76"/>
<text text-anchor="middle" x="84.05" y="-470.06" font-family="Arial" font-size="14.00" fill="#000000">dir_cntrl3</text>
</g>
<!-- system.ruby.dir_cntrl3&#45;&#45;system.ruby.network.routers03 -->
<g id="edge44" class="edge">
<title>system.ruby.dir_cntrl3&#45;&#45;system.ruby.network.routers03</title>
<path fill="none" stroke="#381526" d="M118.15,-449.85C119.11,-449.17 120.07,-448.5 121.02,-447.83"/>
<polygon fill="#381526" stroke="#381526" points="116.04,-447.05 109.87,-455.65 120.06,-452.78 116.04,-447.05"/>
<polygon fill="#381526" stroke="#381526" points="123.37,-450.46 129.54,-441.85 119.35,-444.73 123.37,-450.46"/>
</g>
<!-- system.ruby.dir_cntrl4 -->
<g id="node37" class="node">
<title>system.ruby.dir_cntrl4</title>
<path fill="#e5bcd0" stroke="#000000" d="M179.9,-22.99C179.9,-22.99 227.9,-22.99 227.9,-22.99 233.9,-22.99 239.9,-28.99 239.9,-34.99 239.9,-34.99 239.9,-46.99 239.9,-46.99 239.9,-52.99 233.9,-58.99 227.9,-58.99 227.9,-58.99 179.9,-58.99 179.9,-58.99 173.9,-58.99 167.9,-52.99 167.9,-46.99 167.9,-46.99 167.9,-34.99 167.9,-34.99 167.9,-28.99 173.9,-22.99 179.9,-22.99"/>
<text text-anchor="middle" x="203.9" y="-37.29" font-family="Arial" font-size="14.00" fill="#000000">dir_cntrl4</text>
</g>
<!-- system.ruby.dir_cntrl4&#45;&#45;system.ruby.network.routers04 -->
<g id="edge45" class="edge">
<title>system.ruby.dir_cntrl4&#45;&#45;system.ruby.network.routers04</title>
<path fill="none" stroke="#381526" d="M207.15,-69.06C208.14,-77.66 209.23,-87.12 210.23,-95.73"/>
<polygon fill="#381526" stroke="#381526" points="210.61,-68.52 205.98,-58.99 203.65,-69.32 210.61,-68.52"/>
<polygon fill="#381526" stroke="#381526" points="206.76,-96.16 211.38,-105.7 213.71,-95.36 206.76,-96.16"/>
</g>
<!-- system.ruby.dir_cntrl5 -->
<g id="node38" class="node">
<title>system.ruby.dir_cntrl5</title>
<path fill="#e5bcd0" stroke="#000000" d="M150.72,-195.65C150.72,-195.65 198.72,-195.65 198.72,-195.65 204.72,-195.65 210.72,-201.65 210.72,-207.65 210.72,-207.65 210.72,-219.65 210.72,-219.65 210.72,-225.65 204.72,-231.65 198.72,-231.65 198.72,-231.65 150.72,-231.65 150.72,-231.65 144.72,-231.65 138.72,-225.65 138.72,-219.65 138.72,-219.65 138.72,-207.65 138.72,-207.65 138.72,-201.65 144.72,-195.65 150.72,-195.65"/>
<text text-anchor="middle" x="174.72" y="-209.95" font-family="Arial" font-size="14.00" fill="#000000">dir_cntrl5</text>
</g>
<!-- system.ruby.dir_cntrl5&#45;&#45;system.ruby.network.routers05 -->
<g id="edge46" class="edge">
<title>system.ruby.dir_cntrl5&#45;&#45;system.ruby.network.routers05</title>
<path fill="none" stroke="#381526" d="M211.13,-220C211.16,-220 211.2,-220.01 211.24,-220.02"/>
<polygon fill="#381526" stroke="#381526" points="221.36,-218.23 210.9,-219.96 220.15,-225.13 221.36,-218.23"/>
<polygon fill="#381526" stroke="#381526" points="200.89,-221.76 211.35,-220.04 202.1,-214.86 200.89,-221.76"/>
</g>
<!-- system.ruby.dir_cntrl6 -->
<g id="node39" class="node">
<title>system.ruby.dir_cntrl6</title>
<path fill="#e5bcd0" stroke="#000000" d="M166.34,-321.24C166.34,-321.24 214.34,-321.24 214.34,-321.24 220.34,-321.24 226.34,-327.24 226.34,-333.24 226.34,-333.24 226.34,-345.24 226.34,-345.24 226.34,-351.24 220.34,-357.24 214.34,-357.24 214.34,-357.24 166.34,-357.24 166.34,-357.24 160.34,-357.24 154.34,-351.24 154.34,-345.24 154.34,-345.24 154.34,-333.24 154.34,-333.24 154.34,-327.24 160.34,-321.24 166.34,-321.24"/>
<text text-anchor="middle" x="190.34" y="-335.54" font-family="Arial" font-size="14.00" fill="#000000">dir_cntrl6</text>
</g>
<!-- system.ruby.dir_cntrl6&#45;&#45;system.ruby.network.routers06 -->
<g id="edge47" class="edge">
<title>system.ruby.dir_cntrl6&#45;&#45;system.ruby.network.routers06</title>
<path fill="none" stroke="#381526" d="M225.38,-321.13C225.41,-321.11 225.44,-321.1 225.48,-321.08"/>
<polygon fill="#381526" stroke="#381526" points="232.47,-313.52 225.19,-321.23 235.68,-319.74 232.47,-313.52"/>
<polygon fill="#381526" stroke="#381526" points="218.3,-328.74 225.57,-321.03 215.08,-322.52 218.3,-328.74"/>
</g>
<!-- system.ruby.dir_cntrl7 -->
<g id="node40" class="node">
<title>system.ruby.dir_cntrl7</title>
<path fill="#e5bcd0" stroke="#000000" d="M201.33,-473.94C201.33,-473.94 249.33,-473.94 249.33,-473.94 255.33,-473.94 261.33,-479.94 261.33,-485.94 261.33,-485.94 261.33,-497.94 261.33,-497.94 261.33,-503.94 255.33,-509.94 249.33,-509.94 249.33,-509.94 201.33,-509.94 201.33,-509.94 195.33,-509.94 189.33,-503.94 189.33,-497.94 189.33,-497.94 189.33,-485.94 189.33,-485.94 189.33,-479.94 195.33,-473.94 201.33,-473.94"/>
<text text-anchor="middle" x="225.33" y="-488.24" font-family="Arial" font-size="14.00" fill="#000000">dir_cntrl7</text>
</g>
<!-- system.ruby.dir_cntrl7&#45;&#45;system.ruby.network.routers07 -->
<g id="edge48" class="edge">
<title>system.ruby.dir_cntrl7&#45;&#45;system.ruby.network.routers07</title>
<path fill="none" stroke="#381526" d="M234.8,-464.17C237.29,-456.87 239.97,-449.01 242.46,-441.71"/>
<polygon fill="#381526" stroke="#381526" points="231.41,-463.26 231.5,-473.86 238.04,-465.52 231.41,-463.26"/>
<polygon fill="#381526" stroke="#381526" points="245.78,-442.82 245.7,-432.23 239.15,-440.57 245.78,-442.82"/>
</g>
<!-- system.ruby.dir_cntrl8 -->
<g id="node41" class="node">
<title>system.ruby.dir_cntrl8</title>
<path fill="#e5bcd0" stroke="#000000" d="M269.26,-11.54C269.26,-11.54 317.26,-11.54 317.26,-11.54 323.26,-11.54 329.26,-17.54 329.26,-23.54 329.26,-23.54 329.26,-35.54 329.26,-35.54 329.26,-41.54 323.26,-47.54 317.26,-47.54 317.26,-47.54 269.26,-47.54 269.26,-47.54 263.26,-47.54 257.26,-41.54 257.26,-35.54 257.26,-35.54 257.26,-23.54 257.26,-23.54 257.26,-17.54 263.26,-11.54 269.26,-11.54"/>
<text text-anchor="middle" x="293.26" y="-25.84" font-family="Arial" font-size="14.00" fill="#000000">dir_cntrl8</text>
</g>
<!-- system.ruby.dir_cntrl8&#45;&#45;system.ruby.network.routers08 -->
<g id="edge49" class="edge">
<title>system.ruby.dir_cntrl8&#45;&#45;system.ruby.network.routers08</title>
<path fill="none" stroke="#381526" d="M297.39,-57.98C298.63,-66.46 299.97,-75.74 301.2,-84.2"/>
<polygon fill="#381526" stroke="#381526" points="300.83,-57.32 295.93,-47.93 293.91,-58.33 300.83,-57.32"/>
<polygon fill="#381526" stroke="#381526" points="297.78,-84.96 302.68,-94.35 304.71,-83.95 297.78,-84.96"/>
</g>
<!-- system.ruby.dir_cntrl9 -->
<g id="node42" class="node">
<title>system.ruby.dir_cntrl9</title>
<path fill="#e5bcd0" stroke="#000000" d="M341.13,-182.18C341.13,-182.18 389.13,-182.18 389.13,-182.18 395.13,-182.18 401.13,-188.18 401.13,-194.18 401.13,-194.18 401.13,-206.18 401.13,-206.18 401.13,-212.18 395.13,-218.18 389.13,-218.18 389.13,-218.18 341.13,-218.18 341.13,-218.18 335.13,-218.18 329.13,-212.18 329.13,-206.18 329.13,-206.18 329.13,-194.18 329.13,-194.18 329.13,-188.18 335.13,-182.18 341.13,-182.18"/>
<text text-anchor="middle" x="365.13" y="-196.48" font-family="Arial" font-size="14.00" fill="#000000">dir_cntrl9</text>
</g>
<!-- system.ruby.dir_cntrl9&#45;&#45;system.ruby.network.routers09 -->
<g id="edge50" class="edge">
<title>system.ruby.dir_cntrl9&#45;&#45;system.ruby.network.routers09</title>
<path fill="none" stroke="#381526" d="M328.73,-207.61C328.7,-207.62 328.67,-207.63 328.64,-207.63"/>
<polygon fill="#381526" stroke="#381526" points="319.81,-213.01 328.9,-207.58 318.4,-206.15 319.81,-213.01"/>
<polygon fill="#381526" stroke="#381526" points="337.65,-202.21 328.55,-207.65 339.05,-209.07 337.65,-202.21"/>
</g>
<!-- system.ruby.dir_cntrl10 -->
<g id="node43" class="node">
<title>system.ruby.dir_cntrl10</title>
<path fill="#e5bcd0" stroke="#000000" d="M322.81,-332.94C322.81,-332.94 378.81,-332.94 378.81,-332.94 384.81,-332.94 390.81,-338.94 390.81,-344.94 390.81,-344.94 390.81,-356.94 390.81,-356.94 390.81,-362.94 384.81,-368.94 378.81,-368.94 378.81,-368.94 322.81,-368.94 322.81,-368.94 316.81,-368.94 310.81,-362.94 310.81,-356.94 310.81,-356.94 310.81,-344.94 310.81,-344.94 310.81,-338.94 316.81,-332.94 322.81,-332.94"/>
<text text-anchor="middle" x="350.81" y="-347.24" font-family="Arial" font-size="14.00" fill="#000000">dir_cntrl10</text>
</g>
<!-- system.ruby.dir_cntrl10&#45;&#45;system.ruby.network.routers10 -->
<g id="edge51" class="edge">
<title>system.ruby.dir_cntrl10&#45;&#45;system.ruby.network.routers10</title>
<path fill="none" stroke="#381526" d="M338.98,-323.16C338.91,-323.01 338.85,-322.85 338.78,-322.7"/>
<polygon fill="#381526" stroke="#381526" points="335.91,-324.89 343.05,-332.72 342.35,-322.14 335.91,-324.89"/>
<polygon fill="#381526" stroke="#381526" points="344.54,-327.29 337.4,-319.46 338.1,-330.04 344.54,-327.29"/>
</g>
<!-- system.ruby.dir_cntrl11 -->
<g id="node44" class="node">
<title>system.ruby.dir_cntrl11</title>
<path fill="#e5bcd0" stroke="#000000" d="M363.97,-451.85C363.97,-451.85 418.97,-451.85 418.97,-451.85 424.97,-451.85 430.97,-457.85 430.97,-463.85 430.97,-463.85 430.97,-475.85 430.97,-475.85 430.97,-481.85 424.97,-487.85 418.97,-487.85 418.97,-487.85 363.97,-487.85 363.97,-487.85 357.97,-487.85 351.97,-481.85 351.97,-475.85 351.97,-475.85 351.97,-463.85 351.97,-463.85 351.97,-457.85 357.97,-451.85 363.97,-451.85"/>
<text text-anchor="middle" x="391.47" y="-466.15" font-family="Arial" font-size="14.00" fill="#000000">dir_cntrl11</text>
</g>
<!-- system.ruby.dir_cntrl11&#45;&#45;system.ruby.network.routers11 -->
<g id="edge52" class="edge">
<title>system.ruby.dir_cntrl11&#45;&#45;system.ruby.network.routers11</title>
<path fill="none" stroke="#381526" d="M373.11,-443.1C369.84,-438.33 366.44,-433.37 363.18,-428.62"/>
<polygon fill="#381526" stroke="#381526" points="370.48,-445.45 379.02,-451.72 376.25,-441.49 370.48,-445.45"/>
<polygon fill="#381526" stroke="#381526" points="366.06,-426.63 357.52,-420.37 360.29,-430.59 366.06,-426.63"/>
</g>
<!-- system.ruby.dir_cntrl12 -->
<g id="node45" class="node">
<title>system.ruby.dir_cntrl12</title>
<path fill="#e5bcd0" stroke="#000000" d="M444.25,-32.5C444.25,-32.5 500.25,-32.5 500.25,-32.5 506.25,-32.5 512.25,-38.5 512.25,-44.5 512.25,-44.5 512.25,-56.5 512.25,-56.5 512.25,-62.5 506.25,-68.5 500.25,-68.5 500.25,-68.5 444.25,-68.5 444.25,-68.5 438.25,-68.5 432.25,-62.5 432.25,-56.5 432.25,-56.5 432.25,-44.5 432.25,-44.5 432.25,-38.5 438.25,-32.5 444.25,-32.5"/>
<text text-anchor="middle" x="472.25" y="-46.8" font-family="Arial" font-size="14.00" fill="#000000">dir_cntrl12</text>
</g>
<!-- system.ruby.dir_cntrl12&#45;&#45;system.ruby.network.routers12 -->
<g id="edge53" class="edge">
<title>system.ruby.dir_cntrl12&#45;&#45;system.ruby.network.routers12</title>
<path fill="none" stroke="#381526" d="M437.98,-74.7C436.88,-75.48 435.77,-76.26 434.67,-77.04"/>
<polygon fill="#381526" stroke="#381526" points="440.31,-77.34 446.46,-68.71 436.27,-71.63 440.31,-77.34"/>
<polygon fill="#381526" stroke="#381526" points="432.48,-74.3 426.33,-82.93 436.52,-80.02 432.48,-74.3"/>
</g>
<!-- system.ruby.dir_cntrl13 -->
<g id="node46" class="node">
<title>system.ruby.dir_cntrl13</title>
<path fill="#e5bcd0" stroke="#000000" d="M456.68,-131.08C456.68,-131.08 512.68,-131.08 512.68,-131.08 518.68,-131.08 524.68,-137.08 524.68,-143.08 524.68,-143.08 524.68,-155.08 524.68,-155.08 524.68,-161.08 518.68,-167.08 512.68,-167.08 512.68,-167.08 456.68,-167.08 456.68,-167.08 450.68,-167.08 444.68,-161.08 444.68,-155.08 444.68,-155.08 444.68,-143.08 444.68,-143.08 444.68,-137.08 450.68,-131.08 456.68,-131.08"/>
<text text-anchor="middle" x="484.68" y="-145.38" font-family="Arial" font-size="14.00" fill="#000000">dir_cntrl13</text>
</g>
<!-- system.ruby.dir_cntrl13&#45;&#45;system.ruby.network.routers13 -->
<g id="edge54" class="edge">
<title>system.ruby.dir_cntrl13&#45;&#45;system.ruby.network.routers13</title>
<path fill="none" stroke="#381526" d="M449.52,-173.04C449.39,-173.12 449.27,-173.2 449.15,-173.29"/>
<polygon fill="#381526" stroke="#381526" points="451.74,-175.76 458.03,-167.24 447.8,-169.97 451.74,-175.76"/>
<polygon fill="#381526" stroke="#381526" points="450,-168.47 443.71,-176.99 453.94,-174.26 450,-168.47"/>
</g>
<!-- system.ruby.dir_cntrl14 -->
<g id="node47" class="node">
<title>system.ruby.dir_cntrl14</title>
<path fill="#e5bcd0" stroke="#000000" d="M484.02,-257.88C484.02,-257.88 540.02,-257.88 540.02,-257.88 546.02,-257.88 552.02,-263.88 552.02,-269.88 552.02,-269.88 552.02,-281.88 552.02,-281.88 552.02,-287.88 546.02,-293.88 540.02,-293.88 540.02,-293.88 484.02,-293.88 484.02,-293.88 478.02,-293.88 472.02,-287.88 472.02,-281.88 472.02,-281.88 472.02,-269.88 472.02,-269.88 472.02,-263.88 478.02,-257.88 484.02,-257.88"/>
<text text-anchor="middle" x="512.02" y="-272.18" font-family="Arial" font-size="14.00" fill="#000000">dir_cntrl14</text>
</g>
<!-- system.ruby.dir_cntrl14&#45;&#45;system.ruby.network.routers14 -->
<g id="edge55" class="edge">
<title>system.ruby.dir_cntrl14&#45;&#45;system.ruby.network.routers14</title>
<path fill="none" stroke="#381526" d="M461.73,-283.67C461.62,-283.68 461.51,-283.7 461.41,-283.71"/>
<polygon fill="#381526" stroke="#381526" points="462.32,-287.12 471.67,-282.13 461.25,-280.2 462.32,-287.12"/>
<polygon fill="#381526" stroke="#381526" points="466.02,-279.46 456.68,-284.45 467.09,-286.38 466.02,-279.46"/>
</g>
<!-- system.ruby.dir_cntrl15 -->
<g id="node48" class="node">
<title>system.ruby.dir_cntrl15</title>
<path fill="#e5bcd0" stroke="#000000" d="M494.69,-395.37C494.69,-395.37 550.69,-395.37 550.69,-395.37 556.69,-395.37 562.69,-401.37 562.69,-407.37 562.69,-407.37 562.69,-419.37 562.69,-419.37 562.69,-425.37 556.69,-431.37 550.69,-431.37 550.69,-431.37 494.69,-431.37 494.69,-431.37 488.69,-431.37 482.69,-425.37 482.69,-419.37 482.69,-419.37 482.69,-407.37 482.69,-407.37 482.69,-401.37 488.69,-395.37 494.69,-395.37"/>
<text text-anchor="middle" x="522.69" y="-409.67" font-family="Arial" font-size="14.00" fill="#000000">dir_cntrl15</text>
</g>
<!-- system.ruby.dir_cntrl15&#45;&#45;system.ruby.network.routers15 -->
<g id="edge56" class="edge">
<title>system.ruby.dir_cntrl15&#45;&#45;system.ruby.network.routers15</title>
<path fill="none" stroke="#381526" d="M472.89,-396.19C472.77,-396.14 472.66,-396.1 472.54,-396.06"/>
<polygon fill="#381526" stroke="#381526" points="471.76,-399.5 482.36,-399.45 474.05,-392.88 471.76,-399.5"/>
<polygon fill="#381526" stroke="#381526" points="477.97,-394.23 467.37,-394.28 475.69,-400.85 477.97,-394.23"/>
</g>
</g>
</svg>
